<mxfile host="app.diagrams.net" agent="Mozilla/5.0 (X11; Linux x86_64) AppleWebKit/537.36 (KHTML, like Gecko) Chrome/127.0.0.0 Safari/537.36" version="24.7.5">
  <diagram name="Page-1" id="-p4xYFX2C91qtKGHi8kl">
    <mxGraphModel dx="2261" dy="820" grid="1" gridSize="10" guides="1" tooltips="1" connect="1" arrows="1" fold="1" page="1" pageScale="1" pageWidth="827" pageHeight="1169" math="0" shadow="0">
      <root>
        <mxCell id="0" />
        <mxCell id="1" parent="0" />
        <mxCell id="A_HB-JkLgE6mtroox0yF-1" value="" style="sketch=0;aspect=fixed;pointerEvents=1;shadow=0;dashed=0;html=1;strokeColor=none;labelPosition=center;verticalLabelPosition=bottom;verticalAlign=top;align=center;fillColor=#00188D;shape=mxgraph.mscae.enterprise.client_application" vertex="1" parent="1">
          <mxGeometry x="-270" y="234" width="140.63" height="90" as="geometry" />
        </mxCell>
        <mxCell id="A_HB-JkLgE6mtroox0yF-7" style="edgeStyle=orthogonalEdgeStyle;rounded=0;orthogonalLoop=1;jettySize=auto;html=1;entryX=0;entryY=0.5;entryDx=0;entryDy=0;" edge="1" parent="1" source="A_HB-JkLgE6mtroox0yF-2" target="A_HB-JkLgE6mtroox0yF-4">
          <mxGeometry relative="1" as="geometry">
            <Array as="points">
              <mxPoint x="10" y="119" />
            </Array>
          </mxGeometry>
        </mxCell>
        <mxCell id="A_HB-JkLgE6mtroox0yF-8" style="edgeStyle=orthogonalEdgeStyle;rounded=0;orthogonalLoop=1;jettySize=auto;html=1;entryX=0;entryY=0.5;entryDx=0;entryDy=0;" edge="1" parent="1" source="A_HB-JkLgE6mtroox0yF-2" target="A_HB-JkLgE6mtroox0yF-6">
          <mxGeometry relative="1" as="geometry">
            <Array as="points">
              <mxPoint x="15" y="442" />
            </Array>
          </mxGeometry>
        </mxCell>
        <mxCell id="A_HB-JkLgE6mtroox0yF-9" style="edgeStyle=orthogonalEdgeStyle;rounded=0;orthogonalLoop=1;jettySize=auto;html=1;entryX=0;entryY=0.5;entryDx=0;entryDy=0;" edge="1" parent="1" source="A_HB-JkLgE6mtroox0yF-2" target="A_HB-JkLgE6mtroox0yF-5">
          <mxGeometry relative="1" as="geometry" />
        </mxCell>
        <mxCell id="A_HB-JkLgE6mtroox0yF-2" value="" style="outlineConnect=0;dashed=0;verticalLabelPosition=bottom;verticalAlign=top;align=center;html=1;shape=mxgraph.aws3.classic_load_balancer;fillColor=#F58534;gradientColor=none;" vertex="1" parent="1">
          <mxGeometry x="-20" y="243" width="69" height="72" as="geometry" />
        </mxCell>
        <mxCell id="A_HB-JkLgE6mtroox0yF-3" style="edgeStyle=orthogonalEdgeStyle;rounded=0;orthogonalLoop=1;jettySize=auto;html=1;entryX=0;entryY=0.5;entryDx=0;entryDy=0;entryPerimeter=0;" edge="1" parent="1" source="A_HB-JkLgE6mtroox0yF-1" target="A_HB-JkLgE6mtroox0yF-2">
          <mxGeometry relative="1" as="geometry" />
        </mxCell>
        <mxCell id="A_HB-JkLgE6mtroox0yF-17" style="edgeStyle=orthogonalEdgeStyle;rounded=0;orthogonalLoop=1;jettySize=auto;html=1;" edge="1" parent="1" source="A_HB-JkLgE6mtroox0yF-4" target="A_HB-JkLgE6mtroox0yF-10">
          <mxGeometry relative="1" as="geometry" />
        </mxCell>
        <mxCell id="A_HB-JkLgE6mtroox0yF-4" value="" style="image;aspect=fixed;perimeter=ellipsePerimeter;html=1;align=center;shadow=0;dashed=0;spacingTop=3;image=img/lib/active_directory/web_server.svg;" vertex="1" parent="1">
          <mxGeometry x="110" y="81.5" width="60" height="75" as="geometry" />
        </mxCell>
        <mxCell id="A_HB-JkLgE6mtroox0yF-16" style="edgeStyle=orthogonalEdgeStyle;rounded=0;orthogonalLoop=1;jettySize=auto;html=1;" edge="1" parent="1" source="A_HB-JkLgE6mtroox0yF-5" target="A_HB-JkLgE6mtroox0yF-11">
          <mxGeometry relative="1" as="geometry" />
        </mxCell>
        <mxCell id="A_HB-JkLgE6mtroox0yF-5" value="" style="image;aspect=fixed;perimeter=ellipsePerimeter;html=1;align=center;shadow=0;dashed=0;spacingTop=3;image=img/lib/active_directory/web_server.svg;" vertex="1" parent="1">
          <mxGeometry x="100" y="243" width="60" height="75" as="geometry" />
        </mxCell>
        <mxCell id="A_HB-JkLgE6mtroox0yF-13" style="edgeStyle=orthogonalEdgeStyle;rounded=0;orthogonalLoop=1;jettySize=auto;html=1;" edge="1" parent="1" source="A_HB-JkLgE6mtroox0yF-6" target="A_HB-JkLgE6mtroox0yF-12">
          <mxGeometry relative="1" as="geometry" />
        </mxCell>
        <mxCell id="A_HB-JkLgE6mtroox0yF-14" style="edgeStyle=orthogonalEdgeStyle;rounded=0;orthogonalLoop=1;jettySize=auto;html=1;" edge="1" parent="1" source="A_HB-JkLgE6mtroox0yF-6" target="A_HB-JkLgE6mtroox0yF-11">
          <mxGeometry relative="1" as="geometry">
            <Array as="points">
              <mxPoint x="140" y="564" />
              <mxPoint x="470" y="564" />
              <mxPoint x="470" y="281" />
            </Array>
          </mxGeometry>
        </mxCell>
        <mxCell id="A_HB-JkLgE6mtroox0yF-15" style="edgeStyle=orthogonalEdgeStyle;rounded=0;orthogonalLoop=1;jettySize=auto;html=1;" edge="1" parent="1" source="A_HB-JkLgE6mtroox0yF-6" target="A_HB-JkLgE6mtroox0yF-10">
          <mxGeometry relative="1" as="geometry">
            <Array as="points">
              <mxPoint x="140" y="534" />
              <mxPoint x="430" y="534" />
              <mxPoint x="430" y="133" />
            </Array>
          </mxGeometry>
        </mxCell>
        <mxCell id="A_HB-JkLgE6mtroox0yF-6" value="" style="image;aspect=fixed;perimeter=ellipsePerimeter;html=1;align=center;shadow=0;dashed=0;spacingTop=3;image=img/lib/active_directory/web_server.svg;" vertex="1" parent="1">
          <mxGeometry x="110" y="404" width="60" height="75" as="geometry" />
        </mxCell>
        <mxCell id="A_HB-JkLgE6mtroox0yF-20" style="edgeStyle=orthogonalEdgeStyle;rounded=0;orthogonalLoop=1;jettySize=auto;html=1;" edge="1" parent="1" source="A_HB-JkLgE6mtroox0yF-10" target="A_HB-JkLgE6mtroox0yF-19">
          <mxGeometry relative="1" as="geometry" />
        </mxCell>
        <mxCell id="A_HB-JkLgE6mtroox0yF-10" value="" style="sketch=0;outlineConnect=0;fontColor=#232F3E;gradientColor=none;fillColor=#C925D1;strokeColor=none;dashed=0;verticalLabelPosition=bottom;verticalAlign=top;align=center;html=1;fontSize=12;fontStyle=0;aspect=fixed;pointerEvents=1;shape=mxgraph.aws4.rds_sql_server_instance;" vertex="1" parent="1">
          <mxGeometry x="310" y="80" width="78" height="78" as="geometry" />
        </mxCell>
        <mxCell id="A_HB-JkLgE6mtroox0yF-21" style="edgeStyle=orthogonalEdgeStyle;rounded=0;orthogonalLoop=1;jettySize=auto;html=1;" edge="1" parent="1" source="A_HB-JkLgE6mtroox0yF-11" target="A_HB-JkLgE6mtroox0yF-19">
          <mxGeometry relative="1" as="geometry" />
        </mxCell>
        <mxCell id="A_HB-JkLgE6mtroox0yF-11" value="" style="sketch=0;outlineConnect=0;fontColor=#232F3E;gradientColor=none;fillColor=#C925D1;strokeColor=none;dashed=0;verticalLabelPosition=bottom;verticalAlign=top;align=center;html=1;fontSize=12;fontStyle=0;aspect=fixed;pointerEvents=1;shape=mxgraph.aws4.rds_sql_server_instance;" vertex="1" parent="1">
          <mxGeometry x="300" y="241.5" width="78" height="78" as="geometry" />
        </mxCell>
        <mxCell id="A_HB-JkLgE6mtroox0yF-22" style="edgeStyle=orthogonalEdgeStyle;rounded=0;orthogonalLoop=1;jettySize=auto;html=1;entryX=0;entryY=0.5;entryDx=0;entryDy=0;" edge="1" parent="1" source="A_HB-JkLgE6mtroox0yF-12" target="A_HB-JkLgE6mtroox0yF-19">
          <mxGeometry relative="1" as="geometry">
            <mxPoint x="660" y="360" as="targetPoint" />
            <Array as="points">
              <mxPoint x="661" y="433" />
              <mxPoint x="661" y="310" />
            </Array>
          </mxGeometry>
        </mxCell>
        <mxCell id="A_HB-JkLgE6mtroox0yF-12" value="" style="sketch=0;outlineConnect=0;fontColor=#232F3E;gradientColor=none;fillColor=#C925D1;strokeColor=none;dashed=0;verticalLabelPosition=bottom;verticalAlign=top;align=center;html=1;fontSize=12;fontStyle=0;aspect=fixed;pointerEvents=1;shape=mxgraph.aws4.rds_sql_server_instance;" vertex="1" parent="1">
          <mxGeometry x="310" y="394" width="78" height="78" as="geometry" />
        </mxCell>
        <mxCell id="A_HB-JkLgE6mtroox0yF-19" value="" style="rounded=1;whiteSpace=wrap;html=1;" vertex="1" parent="1">
          <mxGeometry x="690" y="70" width="80" height="480" as="geometry" />
        </mxCell>
      </root>
    </mxGraphModel>
  </diagram>
</mxfile>
